<mxfile host="Electron" agent="Mozilla/5.0 (Windows NT 10.0; Win64; x64) AppleWebKit/537.36 (KHTML, like Gecko) draw.io/26.0.4 Chrome/128.0.6613.186 Electron/32.2.5 Safari/537.36" version="26.0.4">
  <diagram name="Page-1" id="3Qmz4yNFCVc4k0oNwkrS">
    <mxGraphModel dx="1430" dy="825" grid="1" gridSize="10" guides="0" tooltips="1" connect="1" arrows="1" fold="1" page="1" pageScale="1" pageWidth="850" pageHeight="1100" math="0" shadow="0">
      <root>
        <mxCell id="0" />
        <mxCell id="1" parent="0" />
        <mxCell id="96" value="" style="group" parent="1" vertex="1" connectable="0">
          <mxGeometry x="10" y="10" width="790" height="260" as="geometry" />
        </mxCell>
        <mxCell id="vkjEDLj0hO1vBvQd3F8n-6" value="tic-tac-toe-console" style="shape=module;align=left;spacingLeft=20;align=center;verticalAlign=top;whiteSpace=wrap;html=1;" parent="96" vertex="1">
          <mxGeometry width="790" height="260" as="geometry" />
        </mxCell>
        <mxCell id="188" style="edgeStyle=orthogonalEdgeStyle;html=1;fontColor=#FFFFFF;endArrow=open;endFill=0;" parent="96" source="13" target="3" edge="1">
          <mxGeometry relative="1" as="geometry">
            <Array as="points">
              <mxPoint x="380" y="110" />
              <mxPoint x="380" y="110" />
            </Array>
          </mxGeometry>
        </mxCell>
        <mxCell id="13" value="init" style="shape=process2;fixedSize=1;size=5;fontStyle=1;" parent="96" vertex="1">
          <mxGeometry x="90" y="90" width="110" height="40" as="geometry" />
        </mxCell>
        <mxCell id="3" value="&lt;b&gt;ConsoleConnection&lt;/b&gt;" style="swimlane;fontStyle=0;align=center;verticalAlign=top;childLayout=stackLayout;horizontal=1;startSize=20;horizontalStack=0;resizeParent=1;resizeParentMax=0;resizeLast=0;collapsible=0;marginBottom=0;html=1;" parent="96" vertex="1">
          <mxGeometry x="440" y="30" width="280" height="168" as="geometry" />
        </mxCell>
        <mxCell id="5" value="+ inFile: file*" style="text;html=1;strokeColor=none;fillColor=none;align=left;verticalAlign=middle;spacingLeft=4;spacingRight=4;overflow=hidden;rotatable=0;points=[[0,0.5],[1,0.5]];portConstraint=eastwest;" parent="3" vertex="1">
          <mxGeometry y="20" width="280" height="20" as="geometry" />
        </mxCell>
        <mxCell id="14" value="+ outFile: file*" style="text;html=1;strokeColor=none;fillColor=none;align=left;verticalAlign=middle;spacingLeft=4;spacingRight=4;overflow=hidden;rotatable=0;points=[[0,0.5],[1,0.5]];portConstraint=eastwest;" parent="3" vertex="1">
          <mxGeometry y="40" width="280" height="20" as="geometry" />
        </mxCell>
        <mxCell id="17" value="+ messages: { [Message]: (...args) -&amp;gt; string }" style="text;html=1;strokeColor=none;fillColor=none;align=left;verticalAlign=middle;spacingLeft=4;spacingRight=4;overflow=hidden;rotatable=0;points=[[0,0.5],[1,0.5]];portConstraint=eastwest;" parent="3" vertex="1">
          <mxGeometry y="60" width="280" height="20" as="geometry" />
        </mxCell>
        <mxCell id="8" value="" style="line;strokeWidth=1;fillColor=none;align=left;verticalAlign=middle;spacingTop=-1;spacingLeft=3;spacingRight=3;rotatable=0;labelPosition=right;points=[];portConstraint=eastwest;" parent="3" vertex="1">
          <mxGeometry y="80" width="280" height="8" as="geometry" />
        </mxCell>
        <mxCell id="19" value="+ &lt;u&gt;ConsoleConnection&lt;/u&gt;(inFile?: file*, outFile?: file*)" style="text;html=1;strokeColor=none;fillColor=none;align=left;verticalAlign=middle;spacingLeft=4;spacingRight=4;overflow=hidden;rotatable=0;points=[[0,0.5],[1,0.5]];portConstraint=eastwest;" parent="3" vertex="1">
          <mxGeometry y="88" width="280" height="20" as="geometry" />
        </mxCell>
        <mxCell id="18" value="+ format(Message, ...args): string" style="text;html=1;strokeColor=none;fillColor=none;align=left;verticalAlign=middle;spacingLeft=4;spacingRight=4;overflow=hidden;rotatable=0;points=[[0,0.5],[1,0.5]];portConstraint=eastwest;" parent="3" vertex="1">
          <mxGeometry y="108" width="280" height="20" as="geometry" />
        </mxCell>
        <mxCell id="10" value="+ prompt(Message, ...args): string" style="text;html=1;strokeColor=none;fillColor=none;align=left;verticalAlign=middle;spacingLeft=4;spacingRight=4;overflow=hidden;rotatable=0;points=[[0,0.5],[1,0.5]];portConstraint=eastwest;" parent="3" vertex="1">
          <mxGeometry y="128" width="280" height="20" as="geometry" />
        </mxCell>
        <mxCell id="16" value="+ print(Message, ...args): ()" style="text;html=1;strokeColor=none;fillColor=none;align=left;verticalAlign=middle;spacingLeft=4;spacingRight=4;overflow=hidden;rotatable=0;points=[[0,0.5],[1,0.5]];portConstraint=eastwest;" parent="3" vertex="1">
          <mxGeometry y="148" width="280" height="20" as="geometry" />
        </mxCell>
        <mxCell id="sri0j_8zGDh43W-E4V1I-191" value="" style="group" vertex="1" connectable="0" parent="1">
          <mxGeometry x="10" y="280" width="810" height="960" as="geometry" />
        </mxCell>
        <mxCell id="vkjEDLj0hO1vBvQd3F8n-5" value="tic-tac-toe" style="shape=module;align=left;spacingLeft=20;align=center;verticalAlign=top;whiteSpace=wrap;html=1;" parent="sri0j_8zGDh43W-E4V1I-191" vertex="1">
          <mxGeometry width="810" height="960" as="geometry" />
        </mxCell>
        <mxCell id="LcbPu9XO0VQtriAoMdwd-191" style="edgeStyle=orthogonalEdgeStyle;rounded=1;orthogonalLoop=1;jettySize=auto;html=1;curved=0;endArrow=open;endFill=0;flowAnimation=0;" parent="sri0j_8zGDh43W-E4V1I-191" source="20" target="44" edge="1">
          <mxGeometry relative="1" as="geometry">
            <Array as="points">
              <mxPoint x="360" y="144" />
              <mxPoint x="360" y="270" />
              <mxPoint x="610" y="270" />
            </Array>
          </mxGeometry>
        </mxCell>
        <mxCell id="sri0j_8zGDh43W-E4V1I-192" style="edgeStyle=orthogonalEdgeStyle;rounded=1;orthogonalLoop=1;jettySize=auto;html=1;curved=0;endArrow=open;endFill=0;" edge="1" parent="sri0j_8zGDh43W-E4V1I-191" source="20" target="64">
          <mxGeometry relative="1" as="geometry">
            <Array as="points">
              <mxPoint x="490" y="170" />
            </Array>
          </mxGeometry>
        </mxCell>
        <mxCell id="20" value="&lt;b&gt;Application&lt;/b&gt;" style="swimlane;fontStyle=0;align=center;verticalAlign=top;childLayout=stackLayout;horizontal=1;startSize=20;horizontalStack=0;resizeParent=1;resizeParentMax=0;resizeLast=0;collapsible=0;marginBottom=0;html=1;" parent="sri0j_8zGDh43W-E4V1I-191" vertex="1">
          <mxGeometry x="30" y="20" width="280" height="248" as="geometry" />
        </mxCell>
        <mxCell id="28" value="+ conn: Connection" style="text;html=1;strokeColor=none;fillColor=none;align=left;verticalAlign=middle;spacingLeft=4;spacingRight=4;overflow=hidden;rotatable=0;points=[[0,0.5],[1,0.5]];portConstraint=eastwest;" parent="20" vertex="1">
          <mxGeometry y="20" width="280" height="20" as="geometry" />
        </mxCell>
        <mxCell id="24" value="+ board: Board" style="text;html=1;strokeColor=none;fillColor=none;align=left;verticalAlign=middle;spacingLeft=4;spacingRight=4;overflow=hidden;rotatable=0;points=[[0,0.5],[1,0.5]];portConstraint=eastwest;" parent="20" vertex="1">
          <mxGeometry y="40" width="280" height="20" as="geometry" />
        </mxCell>
        <mxCell id="25" value="" style="line;strokeWidth=1;fillColor=none;align=left;verticalAlign=middle;spacingTop=-1;spacingLeft=3;spacingRight=3;rotatable=0;labelPosition=right;points=[];portConstraint=eastwest;" parent="20" vertex="1">
          <mxGeometry y="60" width="280" height="8" as="geometry" />
        </mxCell>
        <mxCell id="22" value="+&amp;nbsp;&lt;u&gt;App&lt;/u&gt;(Connection, pattern?: string)" style="text;html=1;strokeColor=none;fillColor=none;align=left;verticalAlign=middle;spacingLeft=4;spacingRight=4;overflow=hidden;rotatable=0;points=[[0,0.5],[1,0.5]];portConstraint=eastwest;" parent="20" vertex="1">
          <mxGeometry y="68" width="280" height="20" as="geometry" />
        </mxCell>
        <mxCell id="27" value="+ promptComputerOnce(Mark): Player?" style="text;html=1;strokeColor=none;fillColor=none;align=left;verticalAlign=middle;spacingLeft=4;spacingRight=4;overflow=hidden;rotatable=0;points=[[0,0.5],[1,0.5]];portConstraint=eastwest;" parent="20" vertex="1">
          <mxGeometry y="88" width="280" height="20" as="geometry" />
        </mxCell>
        <mxCell id="29" value="+ promptPlayerOnce(Mark): Player?" style="text;html=1;strokeColor=none;fillColor=none;align=left;verticalAlign=middle;spacingLeft=4;spacingRight=4;overflow=hidden;rotatable=0;points=[[0,0.5],[1,0.5]];portConstraint=eastwest;" parent="20" vertex="1">
          <mxGeometry y="108" width="280" height="20" as="geometry" />
        </mxCell>
        <mxCell id="33" value="+ promptPlayer(Mark): Player" style="text;html=1;strokeColor=none;fillColor=none;align=left;verticalAlign=middle;spacingLeft=4;spacingRight=4;overflow=hidden;rotatable=0;points=[[0,0.5],[1,0.5]];portConstraint=eastwest;" parent="20" vertex="1">
          <mxGeometry y="128" width="280" height="20" as="geometry" />
        </mxCell>
        <mxCell id="32" value="+ promptPlayers(): Player[]" style="text;html=1;strokeColor=none;fillColor=none;align=left;verticalAlign=middle;spacingLeft=4;spacingRight=4;overflow=hidden;rotatable=0;points=[[0,0.5],[1,0.5]];portConstraint=eastwest;" parent="20" vertex="1">
          <mxGeometry y="148" width="280" height="20" as="geometry" />
        </mxCell>
        <mxCell id="191" value="+ playTurn(player: Player, Mark): EndedResult?" style="text;html=1;strokeColor=none;fillColor=none;align=left;verticalAlign=middle;spacingLeft=4;spacingRight=4;overflow=hidden;rotatable=0;points=[[0,0.5],[1,0.5]];portConstraint=eastwest;" parent="20" vertex="1">
          <mxGeometry y="168" width="280" height="20" as="geometry" />
        </mxCell>
        <mxCell id="31" value="+ playGame(players: Player[]): Mark?" style="text;html=1;strokeColor=none;fillColor=none;align=left;verticalAlign=middle;spacingLeft=4;spacingRight=4;overflow=hidden;rotatable=0;points=[[0,0.5],[1,0.5]];portConstraint=eastwest;" parent="20" vertex="1">
          <mxGeometry y="188" width="280" height="20" as="geometry" />
        </mxCell>
        <mxCell id="30" value="+ displayWinner(Mark?): ()" style="text;html=1;strokeColor=none;fillColor=none;align=left;verticalAlign=middle;spacingLeft=4;spacingRight=4;overflow=hidden;rotatable=0;points=[[0,0.5],[1,0.5]];portConstraint=eastwest;" parent="20" vertex="1">
          <mxGeometry y="208" width="280" height="20" as="geometry" />
        </mxCell>
        <mxCell id="34" value="+ __tostring(): string" style="text;html=1;strokeColor=none;fillColor=none;align=left;verticalAlign=middle;spacingLeft=4;spacingRight=4;overflow=hidden;rotatable=0;points=[[0,0.5],[1,0.5]];portConstraint=eastwest;" parent="20" vertex="1">
          <mxGeometry y="228" width="280" height="20" as="geometry" />
        </mxCell>
        <mxCell id="35" value="&amp;lt;&amp;lt;interface&amp;gt;&amp;gt; &lt;b&gt;&lt;i&gt;Connection&lt;/i&gt;&lt;/b&gt;" style="swimlane;fontStyle=0;align=center;verticalAlign=top;childLayout=stackLayout;horizontal=1;startSize=20;horizontalStack=0;resizeParent=1;resizeParentMax=0;resizeLast=0;collapsible=0;marginBottom=0;html=1;fillColor=#333333;" parent="sri0j_8zGDh43W-E4V1I-191" vertex="1">
          <mxGeometry x="350" y="30" width="200" height="60" as="geometry" />
        </mxCell>
        <mxCell id="39" value="+ &lt;i&gt;print&lt;/i&gt;(Message, ...args): ()" style="text;html=1;strokeColor=none;fillColor=none;align=left;verticalAlign=middle;spacingLeft=4;spacingRight=4;overflow=hidden;rotatable=0;points=[[0,0.5],[1,0.5]];portConstraint=eastwest;" parent="35" vertex="1">
          <mxGeometry y="20" width="200" height="20" as="geometry" />
        </mxCell>
        <mxCell id="43" value="+ &lt;i&gt;prompt&lt;/i&gt;(Message, ...args): string" style="text;html=1;strokeColor=none;fillColor=none;align=left;verticalAlign=middle;spacingLeft=4;spacingRight=4;overflow=hidden;rotatable=0;points=[[0,0.5],[1,0.5]];portConstraint=eastwest;" parent="35" vertex="1">
          <mxGeometry y="40" width="200" height="20" as="geometry" />
        </mxCell>
        <mxCell id="181" style="edgeStyle=orthogonalEdgeStyle;html=1;fontColor=#FFFFFF;endArrow=open;endFill=0;" parent="sri0j_8zGDh43W-E4V1I-191" source="20" target="35" edge="1">
          <mxGeometry relative="1" as="geometry">
            <Array as="points">
              <mxPoint x="330" y="60" />
              <mxPoint x="330" y="60" />
            </Array>
          </mxGeometry>
        </mxCell>
        <mxCell id="64" value="&amp;lt;&amp;lt;enumeration&amp;gt;&amp;gt;&lt;br&gt;&lt;b&gt;Mark&lt;/b&gt;" style="swimlane;fontStyle=0;align=center;verticalAlign=top;childLayout=stackLayout;horizontal=1;startSize=40;horizontalStack=0;resizeParent=1;resizeParentMax=0;resizeLast=0;collapsible=0;marginBottom=0;html=1;fillColor=default;" parent="sri0j_8zGDh43W-E4V1I-191" vertex="1">
          <mxGeometry x="430" y="290" width="120" height="148" as="geometry" />
        </mxCell>
        <mxCell id="66" value="+ &lt;u&gt;X&lt;/u&gt;: Mark" style="text;html=1;strokeColor=none;fillColor=none;align=left;verticalAlign=middle;spacingLeft=4;spacingRight=4;overflow=hidden;rotatable=0;points=[[0,0.5],[1,0.5]];portConstraint=eastwest;" parent="64" vertex="1">
          <mxGeometry y="40" width="120" height="20" as="geometry" />
        </mxCell>
        <mxCell id="72" value="+ &lt;u&gt;O&lt;/u&gt;: Mark" style="text;html=1;strokeColor=none;fillColor=none;align=left;verticalAlign=middle;spacingLeft=4;spacingRight=4;overflow=hidden;rotatable=0;points=[[0,0.5],[1,0.5]];portConstraint=eastwest;" parent="64" vertex="1">
          <mxGeometry y="60" width="120" height="20" as="geometry" />
        </mxCell>
        <mxCell id="69" value="" style="line;strokeWidth=1;fillColor=none;align=left;verticalAlign=middle;spacingTop=-1;spacingLeft=3;spacingRight=3;rotatable=0;labelPosition=right;points=[];portConstraint=eastwest;" parent="64" vertex="1">
          <mxGeometry y="80" width="120" height="8" as="geometry" />
        </mxCell>
        <mxCell id="71" value="- Mark(ascii: string)" style="text;html=1;strokeColor=none;fillColor=none;align=left;verticalAlign=middle;spacingLeft=4;spacingRight=4;overflow=hidden;rotatable=0;points=[[0,0.5],[1,0.5]];portConstraint=eastwest;" parent="64" vertex="1">
          <mxGeometry y="88" width="120" height="20" as="geometry" />
        </mxCell>
        <mxCell id="74" value="+ other(): Mark" style="text;html=1;strokeColor=none;fillColor=none;align=left;verticalAlign=middle;spacingLeft=4;spacingRight=4;overflow=hidden;rotatable=0;points=[[0,0.5],[1,0.5]];portConstraint=eastwest;" parent="64" vertex="1">
          <mxGeometry y="108" width="120" height="20" as="geometry" />
        </mxCell>
        <mxCell id="75" value="+ __tostring(): string" style="text;html=1;strokeColor=none;fillColor=none;align=left;verticalAlign=middle;spacingLeft=4;spacingRight=4;overflow=hidden;rotatable=0;points=[[0,0.5],[1,0.5]];portConstraint=eastwest;" parent="64" vertex="1">
          <mxGeometry y="128" width="120" height="20" as="geometry" />
        </mxCell>
        <mxCell id="140" style="edgeStyle=orthogonalEdgeStyle;html=1;endArrow=open;endFill=0;" parent="sri0j_8zGDh43W-E4V1I-191" source="76" target="44" edge="1">
          <mxGeometry relative="1" as="geometry">
            <mxPoint x="580" y="154" as="sourcePoint" />
            <Array as="points">
              <mxPoint x="730" y="444" />
            </Array>
          </mxGeometry>
        </mxCell>
        <mxCell id="141" style="edgeStyle=orthogonalEdgeStyle;html=1;endArrow=open;endFill=0;" parent="sri0j_8zGDh43W-E4V1I-191" source="76" target="64" edge="1">
          <mxGeometry relative="1" as="geometry">
            <Array as="points">
              <mxPoint x="640" y="300" />
            </Array>
            <mxPoint x="685" y="270" as="sourcePoint" />
          </mxGeometry>
        </mxCell>
        <mxCell id="76" value="&amp;lt;&amp;lt;enumeration&amp;gt;&amp;gt; &lt;b&gt;Message&lt;/b&gt;" style="swimlane;fontStyle=0;align=center;verticalAlign=top;childLayout=stackLayout;horizontal=1;startSize=20;horizontalStack=0;resizeParent=1;resizeParentMax=0;resizeLast=0;collapsible=0;marginBottom=0;html=1;" parent="sri0j_8zGDh43W-E4V1I-191" vertex="1">
          <mxGeometry x="580" y="20" width="210" height="240" as="geometry" />
        </mxCell>
        <mxCell id="84" value="+ &lt;u&gt;MSG_PickPlayer&lt;/u&gt;(Mark)" style="text;html=1;strokeColor=none;fillColor=none;align=left;verticalAlign=middle;spacingLeft=4;spacingRight=4;overflow=hidden;rotatable=0;points=[[0,0.5],[1,0.5]];portConstraint=eastwest;" parent="76" vertex="1">
          <mxGeometry y="20" width="210" height="20" as="geometry" />
        </mxCell>
        <mxCell id="85" value="+ &lt;u&gt;MSG_PickComputer&lt;/u&gt;(Mark)" style="text;html=1;strokeColor=none;fillColor=none;align=left;verticalAlign=middle;spacingLeft=4;spacingRight=4;overflow=hidden;rotatable=0;points=[[0,0.5],[1,0.5]];portConstraint=eastwest;" parent="76" vertex="1">
          <mxGeometry y="40" width="210" height="20" as="geometry" />
        </mxCell>
        <mxCell id="86" value="+ &lt;u&gt;MSG_Game&lt;/u&gt;(string)" style="text;html=1;strokeColor=none;fillColor=none;align=left;verticalAlign=middle;spacingLeft=4;spacingRight=4;overflow=hidden;rotatable=0;points=[[0,0.5],[1,0.5]];portConstraint=eastwest;" parent="76" vertex="1">
          <mxGeometry y="60" width="210" height="20" as="geometry" />
        </mxCell>
        <mxCell id="87" value="+ &lt;u&gt;MSG_PlayerWon&lt;/u&gt;(Mark)" style="text;html=1;strokeColor=none;fillColor=none;align=left;verticalAlign=middle;spacingLeft=4;spacingRight=4;overflow=hidden;rotatable=0;points=[[0,0.5],[1,0.5]];portConstraint=eastwest;" parent="76" vertex="1">
          <mxGeometry y="80" width="210" height="20" as="geometry" />
        </mxCell>
        <mxCell id="88" value="+ &lt;u&gt;MSG_Tied&lt;/u&gt;" style="text;html=1;strokeColor=none;fillColor=none;align=left;verticalAlign=middle;spacingLeft=4;spacingRight=4;overflow=hidden;rotatable=0;points=[[0,0.5],[1,0.5]];portConstraint=eastwest;" parent="76" vertex="1">
          <mxGeometry y="100" width="210" height="20" as="geometry" />
        </mxCell>
        <mxCell id="89" value="+ &lt;u&gt;ERR_InvalidPlayer&lt;/u&gt;(input: string)" style="text;html=1;strokeColor=none;fillColor=none;align=left;verticalAlign=middle;spacingLeft=4;spacingRight=4;overflow=hidden;rotatable=0;points=[[0,0.5],[1,0.5]];portConstraint=eastwest;" parent="76" vertex="1">
          <mxGeometry y="120" width="210" height="20" as="geometry" />
        </mxCell>
        <mxCell id="90" value="+ &lt;u&gt;ERR_InvalidComputer&lt;/u&gt;(input: string)" style="text;html=1;strokeColor=none;fillColor=none;align=left;verticalAlign=middle;spacingLeft=4;spacingRight=4;overflow=hidden;rotatable=0;points=[[0,0.5],[1,0.5]];portConstraint=eastwest;" parent="76" vertex="1">
          <mxGeometry y="140" width="210" height="20" as="geometry" />
        </mxCell>
        <mxCell id="91" value="+ &lt;u&gt;MSG_PickMove&lt;/u&gt;(Mark)" style="text;html=1;strokeColor=none;fillColor=none;align=left;verticalAlign=middle;spacingLeft=4;spacingRight=4;overflow=hidden;rotatable=0;points=[[0,0.5],[1,0.5]];portConstraint=eastwest;" parent="76" vertex="1">
          <mxGeometry y="160" width="210" height="20" as="geometry" />
        </mxCell>
        <mxCell id="92" value="+ &lt;u&gt;ERR_NaN&lt;/u&gt;(input: string)" style="text;html=1;strokeColor=none;fillColor=none;align=left;verticalAlign=middle;spacingLeft=4;spacingRight=4;overflow=hidden;rotatable=0;points=[[0,0.5],[1,0.5]];portConstraint=eastwest;" parent="76" vertex="1">
          <mxGeometry y="180" width="210" height="20" as="geometry" />
        </mxCell>
        <mxCell id="93" value="+ &lt;u&gt;ERR_OutOfRange&lt;/u&gt;(choice: number)" style="text;html=1;strokeColor=none;fillColor=none;align=left;verticalAlign=middle;spacingLeft=4;spacingRight=4;overflow=hidden;rotatable=0;points=[[0,0.5],[1,0.5]];portConstraint=eastwest;" parent="76" vertex="1">
          <mxGeometry y="200" width="210" height="20" as="geometry" />
        </mxCell>
        <mxCell id="94" value="+ &lt;u&gt;ERR_Occupied&lt;/u&gt;(choice: number)" style="text;html=1;strokeColor=none;fillColor=none;align=left;verticalAlign=middle;spacingLeft=4;spacingRight=4;overflow=hidden;rotatable=0;points=[[0,0.5],[1,0.5]];portConstraint=eastwest;" parent="76" vertex="1">
          <mxGeometry y="220" width="210" height="20" as="geometry" />
        </mxCell>
        <mxCell id="186" style="edgeStyle=orthogonalEdgeStyle;html=1;fontColor=#FFFFFF;endArrow=open;endFill=0;shadow=0;flowAnimation=0;" parent="sri0j_8zGDh43W-E4V1I-191" source="20" target="76" edge="1">
          <mxGeometry relative="1" as="geometry">
            <Array as="points">
              <mxPoint x="440" y="200" />
              <mxPoint x="440" y="200" />
            </Array>
          </mxGeometry>
        </mxCell>
        <mxCell id="185" style="edgeStyle=orthogonalEdgeStyle;html=1;fontColor=#FFFFFF;endArrow=open;endFill=0;" parent="sri0j_8zGDh43W-E4V1I-191" source="35" target="76" edge="1">
          <mxGeometry relative="1" as="geometry">
            <Array as="points">
              <mxPoint x="520" y="60" />
              <mxPoint x="520" y="60" />
            </Array>
          </mxGeometry>
        </mxCell>
        <mxCell id="98" value="&amp;lt;&amp;lt;interface&amp;gt;&amp;gt; &lt;b&gt;&lt;i&gt;Player&lt;/i&gt;&lt;/b&gt;" style="swimlane;fontStyle=0;align=center;verticalAlign=top;childLayout=stackLayout;horizontal=1;startSize=20;horizontalStack=0;resizeParent=1;resizeParentMax=0;resizeLast=0;collapsible=0;marginBottom=0;html=1;fillStyle=auto;gradientColor=none;swimlaneFillColor=none;fillColor=#333333;" parent="sri0j_8zGDh43W-E4V1I-191" vertex="1">
          <mxGeometry x="190" y="330" width="190" height="40" as="geometry" />
        </mxCell>
        <mxCell id="105" value="+ &lt;i&gt;getMove&lt;/i&gt;(Board, Mark): number" style="text;html=1;strokeColor=none;fillColor=none;align=left;verticalAlign=middle;spacingLeft=4;spacingRight=4;overflow=hidden;rotatable=0;points=[[0,0.5],[1,0.5]];portConstraint=eastwest;" parent="98" vertex="1">
          <mxGeometry y="20" width="190" height="20" as="geometry" />
        </mxCell>
        <mxCell id="139" style="edgeStyle=orthogonalEdgeStyle;html=1;endArrow=open;endFill=0;flowAnimation=0;" parent="sri0j_8zGDh43W-E4V1I-191" source="20" target="98" edge="1">
          <mxGeometry relative="1" as="geometry">
            <Array as="points">
              <mxPoint x="250" y="310" />
              <mxPoint x="250" y="310" />
            </Array>
          </mxGeometry>
        </mxCell>
        <mxCell id="114" style="edgeStyle=orthogonalEdgeStyle;html=1;endArrow=block;endFill=1;dashed=1;flowAnimation=0;" parent="sri0j_8zGDh43W-E4V1I-191" source="106" target="98" edge="1">
          <mxGeometry relative="1" as="geometry">
            <Array as="points">
              <mxPoint x="340" y="420" />
              <mxPoint x="340" y="420" />
            </Array>
          </mxGeometry>
        </mxCell>
        <mxCell id="106" value="&amp;lt;&amp;lt;abstract&amp;gt;&amp;gt;&amp;nbsp;&lt;i style=&quot;font-weight: bold;&quot;&gt;Computer&lt;/i&gt;" style="swimlane;fontStyle=0;align=center;verticalAlign=top;childLayout=stackLayout;horizontal=1;startSize=20;horizontalStack=0;resizeParent=1;resizeParentMax=0;resizeLast=0;collapsible=0;marginBottom=0;html=1;fillColor=#333333;" parent="sri0j_8zGDh43W-E4V1I-191" vertex="1">
          <mxGeometry x="280" y="470" width="200" height="108" as="geometry" />
        </mxCell>
        <mxCell id="135" value="+ rng: Random" style="text;html=1;strokeColor=none;fillColor=none;align=left;verticalAlign=middle;spacingLeft=4;spacingRight=4;overflow=hidden;rotatable=0;points=[[0,0.5],[1,0.5]];portConstraint=eastwest;" parent="106" vertex="1">
          <mxGeometry y="20" width="200" height="20" as="geometry" />
        </mxCell>
        <mxCell id="134" value="" style="line;strokeWidth=1;fillColor=none;align=left;verticalAlign=middle;spacingTop=-1;spacingLeft=3;spacingRight=3;rotatable=0;labelPosition=right;points=[];portConstraint=eastwest;" parent="106" vertex="1">
          <mxGeometry y="40" width="200" height="8" as="geometry" />
        </mxCell>
        <mxCell id="136" value="# &lt;u&gt;Computer&lt;/u&gt;(rng: Random)" style="text;html=1;strokeColor=none;fillColor=none;align=left;verticalAlign=middle;spacingLeft=4;spacingRight=4;overflow=hidden;rotatable=0;points=[[0,0.5],[1,0.5]];portConstraint=eastwest;" parent="106" vertex="1">
          <mxGeometry y="48" width="200" height="20" as="geometry" />
        </mxCell>
        <mxCell id="113" value="+ &lt;i&gt;getMoves&lt;/i&gt;(Board, Mark): number[]" style="text;html=1;strokeColor=none;fillColor=none;align=left;verticalAlign=middle;spacingLeft=4;spacingRight=4;overflow=hidden;rotatable=0;points=[[0,0.5],[1,0.5]];portConstraint=eastwest;" parent="106" vertex="1">
          <mxGeometry y="68" width="200" height="20" as="geometry" />
        </mxCell>
        <mxCell id="109" value="+ getMove(Board, Mark): number" style="text;html=1;strokeColor=none;fillColor=none;align=left;verticalAlign=middle;spacingLeft=4;spacingRight=4;overflow=hidden;rotatable=0;points=[[0,0.5],[1,0.5]];portConstraint=eastwest;fontColor=#FFFFFF;" parent="106" vertex="1">
          <mxGeometry y="88" width="200" height="20" as="geometry" />
        </mxCell>
        <mxCell id="125" style="edgeStyle=orthogonalEdgeStyle;html=1;endArrow=block;endFill=1;dashed=1;flowAnimation=0;" parent="sri0j_8zGDh43W-E4V1I-191" source="115" target="98" edge="1">
          <mxGeometry relative="1" as="geometry">
            <Array as="points">
              <mxPoint x="230" y="390" />
              <mxPoint x="230" y="390" />
            </Array>
          </mxGeometry>
        </mxCell>
        <mxCell id="182" style="edgeStyle=orthogonalEdgeStyle;html=1;fontColor=#FFFFFF;endArrow=open;endFill=0;flowAnimation=0;shadow=0;" parent="sri0j_8zGDh43W-E4V1I-191" source="115" target="35" edge="1">
          <mxGeometry relative="1" as="geometry">
            <Array as="points">
              <mxPoint x="170" y="290" />
              <mxPoint x="380" y="290" />
            </Array>
          </mxGeometry>
        </mxCell>
        <mxCell id="187" style="edgeStyle=orthogonalEdgeStyle;html=1;fontColor=#FFFFFF;endArrow=open;endFill=0;flowAnimation=0;" parent="sri0j_8zGDh43W-E4V1I-191" source="115" target="76" edge="1">
          <mxGeometry relative="1" as="geometry">
            <Array as="points">
              <mxPoint x="180" y="300" />
              <mxPoint x="390" y="300" />
              <mxPoint x="390" y="140" />
            </Array>
          </mxGeometry>
        </mxCell>
        <mxCell id="115" value="&lt;b&gt;Human&lt;/b&gt;" style="swimlane;fontStyle=0;align=center;verticalAlign=top;childLayout=stackLayout;horizontal=1;startSize=20;horizontalStack=0;resizeParent=1;resizeParentMax=0;resizeLast=0;collapsible=0;marginBottom=0;html=1;" parent="sri0j_8zGDh43W-E4V1I-191" vertex="1">
          <mxGeometry x="20" y="410" width="250" height="108" as="geometry" />
        </mxCell>
        <mxCell id="122" value="+ conn: Connection" style="text;html=1;strokeColor=none;fillColor=none;align=left;verticalAlign=middle;spacingLeft=4;spacingRight=4;overflow=hidden;rotatable=0;points=[[0,0.5],[1,0.5]];portConstraint=eastwest;" parent="115" vertex="1">
          <mxGeometry y="20" width="250" height="20" as="geometry" />
        </mxCell>
        <mxCell id="120" value="" style="line;strokeWidth=1;fillColor=none;align=left;verticalAlign=middle;spacingTop=-1;spacingLeft=3;spacingRight=3;rotatable=0;labelPosition=right;points=[];portConstraint=eastwest;" parent="115" vertex="1">
          <mxGeometry y="40" width="250" height="8" as="geometry" />
        </mxCell>
        <mxCell id="124" value="+ &lt;u&gt;Human&lt;/u&gt;(Connection)" style="text;html=1;strokeColor=none;fillColor=none;align=left;verticalAlign=middle;spacingLeft=4;spacingRight=4;overflow=hidden;rotatable=0;points=[[0,0.5],[1,0.5]];portConstraint=eastwest;" parent="115" vertex="1">
          <mxGeometry y="48" width="250" height="20" as="geometry" />
        </mxCell>
        <mxCell id="117" value="+ getMove(Board, Mark): number" style="text;html=1;strokeColor=none;fillColor=none;align=left;verticalAlign=middle;spacingLeft=4;spacingRight=4;overflow=hidden;rotatable=0;points=[[0,0.5],[1,0.5]];portConstraint=eastwest;" parent="115" vertex="1">
          <mxGeometry y="68" width="250" height="20" as="geometry" />
        </mxCell>
        <mxCell id="119" value="- promptMoveOnce(Board, Mark): number?" style="text;html=1;strokeColor=none;fillColor=none;align=left;verticalAlign=middle;spacingLeft=4;spacingRight=4;overflow=hidden;rotatable=0;points=[[0,0.5],[1,0.5]];portConstraint=eastwest;" parent="115" vertex="1">
          <mxGeometry y="88" width="250" height="20" as="geometry" />
        </mxCell>
        <mxCell id="138" style="edgeStyle=orthogonalEdgeStyle;html=1;dashed=1;endArrow=block;endFill=1;" parent="sri0j_8zGDh43W-E4V1I-191" source="126" target="106" edge="1">
          <mxGeometry relative="1" as="geometry">
            <Array as="points">
              <mxPoint x="250" y="550" />
              <mxPoint x="250" y="550" />
            </Array>
          </mxGeometry>
        </mxCell>
        <mxCell id="126" value="&lt;b&gt;EasyComputer&lt;/b&gt;" style="swimlane;fontStyle=0;align=center;verticalAlign=top;childLayout=stackLayout;horizontal=1;startSize=20;horizontalStack=0;resizeParent=1;resizeParentMax=0;resizeLast=0;collapsible=0;marginBottom=0;html=1;" parent="sri0j_8zGDh43W-E4V1I-191" vertex="1">
          <mxGeometry x="20" y="530" width="200" height="88" as="geometry" />
        </mxCell>
        <mxCell id="137" value="+ rng: Random" style="text;html=1;strokeColor=none;fillColor=none;align=left;verticalAlign=middle;spacingLeft=4;spacingRight=4;overflow=hidden;rotatable=0;points=[[0,0.5],[1,0.5]];portConstraint=eastwest;fontColor=#808080;" parent="126" vertex="1">
          <mxGeometry y="20" width="200" height="20" as="geometry" />
        </mxCell>
        <mxCell id="131" value="" style="line;strokeWidth=1;fillColor=none;align=left;verticalAlign=middle;spacingTop=-1;spacingLeft=3;spacingRight=3;rotatable=0;labelPosition=right;points=[];portConstraint=eastwest;" parent="126" vertex="1">
          <mxGeometry y="40" width="200" height="8" as="geometry" />
        </mxCell>
        <mxCell id="145" value="+ getMove(Board, Mark): number" style="text;html=1;strokeColor=none;fillColor=none;align=left;verticalAlign=middle;spacingLeft=4;spacingRight=4;overflow=hidden;rotatable=0;points=[[0,0.5],[1,0.5]];portConstraint=eastwest;fontColor=#808080;" parent="126" vertex="1">
          <mxGeometry y="48" width="200" height="20" as="geometry" />
        </mxCell>
        <mxCell id="133" value="+ getMoves(Board, Mark): number[]" style="text;html=1;strokeColor=none;fillColor=none;align=left;verticalAlign=middle;spacingLeft=4;spacingRight=4;overflow=hidden;rotatable=0;points=[[0,0.5],[1,0.5]];portConstraint=eastwest;" parent="126" vertex="1">
          <mxGeometry y="68" width="200" height="20" as="geometry" />
        </mxCell>
        <mxCell id="151" style="edgeStyle=orthogonalEdgeStyle;html=1;fontColor=#FFFFFF;endArrow=block;endFill=1;dashed=1;" parent="sri0j_8zGDh43W-E4V1I-191" source="146" target="106" edge="1">
          <mxGeometry relative="1" as="geometry">
            <Array as="points">
              <mxPoint x="290" y="600" />
              <mxPoint x="290" y="600" />
            </Array>
          </mxGeometry>
        </mxCell>
        <mxCell id="146" value="&lt;b&gt;MediumComputer&lt;/b&gt;" style="swimlane;fontStyle=0;align=center;verticalAlign=top;childLayout=stackLayout;horizontal=1;startSize=20;horizontalStack=0;resizeParent=1;resizeParentMax=0;resizeLast=0;collapsible=0;marginBottom=0;html=1;fillColor=default;" parent="sri0j_8zGDh43W-E4V1I-191" vertex="1">
          <mxGeometry x="60" y="630" width="250" height="228" as="geometry" />
        </mxCell>
        <mxCell id="147" value="+ rng: Random" style="text;html=1;strokeColor=none;fillColor=none;align=left;verticalAlign=middle;spacingLeft=4;spacingRight=4;overflow=hidden;rotatable=0;points=[[0,0.5],[1,0.5]];portConstraint=eastwest;fontColor=#808080;" parent="146" vertex="1">
          <mxGeometry y="20" width="250" height="20" as="geometry" />
        </mxCell>
        <mxCell id="sri0j_8zGDh43W-E4V1I-195" value="- &lt;u&gt;WIN_PATTERN_LOOKUP&lt;/u&gt;: number[][]" style="text;html=1;strokeColor=none;fillColor=none;align=left;verticalAlign=middle;spacingLeft=4;spacingRight=4;overflow=hidden;rotatable=0;points=[[0,0.5],[1,0.5]];portConstraint=eastwest;" vertex="1" parent="146">
          <mxGeometry y="40" width="250" height="20" as="geometry" />
        </mxCell>
        <mxCell id="148" value="" style="line;strokeWidth=1;fillColor=none;align=left;verticalAlign=middle;spacingTop=-1;spacingLeft=3;spacingRight=3;rotatable=0;labelPosition=right;points=[];portConstraint=eastwest;" parent="146" vertex="1">
          <mxGeometry y="60" width="250" height="8" as="geometry" />
        </mxCell>
        <mxCell id="150" value="+ getMove(Board, Mark): number" style="text;html=1;strokeColor=none;fillColor=none;align=left;verticalAlign=middle;spacingLeft=4;spacingRight=4;overflow=hidden;rotatable=0;points=[[0,0.5],[1,0.5]];portConstraint=eastwest;fontColor=#808080;" parent="146" vertex="1">
          <mxGeometry y="68" width="250" height="20" as="geometry" />
        </mxCell>
        <mxCell id="152" value="- &lt;u&gt;getWinningMoves&lt;/u&gt;(Board, Mark): number[]" style="text;html=1;strokeColor=none;fillColor=none;align=left;verticalAlign=middle;spacingLeft=4;spacingRight=4;overflow=hidden;rotatable=0;points=[[0,0.5],[1,0.5]];portConstraint=eastwest;" parent="146" vertex="1">
          <mxGeometry y="88" width="250" height="20" as="geometry" />
        </mxCell>
        <mxCell id="153" value="-&amp;nbsp;&lt;u&gt;getBlockingMoves&lt;/u&gt;(Board, Mark): number[]" style="text;html=1;strokeColor=none;fillColor=none;align=left;verticalAlign=middle;spacingLeft=4;spacingRight=4;overflow=hidden;rotatable=0;points=[[0,0.5],[1,0.5]];portConstraint=eastwest;" parent="146" vertex="1">
          <mxGeometry y="108" width="250" height="20" as="geometry" />
        </mxCell>
        <mxCell id="154" value="-&amp;nbsp;&lt;u&gt;getTrappingMoves&lt;/u&gt;(Board, Mark): number[]" style="text;html=1;strokeColor=none;fillColor=none;align=left;verticalAlign=middle;spacingLeft=4;spacingRight=4;overflow=hidden;rotatable=0;points=[[0,0.5],[1,0.5]];portConstraint=eastwest;" parent="146" vertex="1">
          <mxGeometry y="128" width="250" height="20" as="geometry" />
        </mxCell>
        <mxCell id="155" value="- &lt;u&gt;getCenterMoves&lt;/u&gt;(Board, Mark): number[]" style="text;html=1;strokeColor=none;fillColor=none;align=left;verticalAlign=middle;spacingLeft=4;spacingRight=4;overflow=hidden;rotatable=0;points=[[0,0.5],[1,0.5]];portConstraint=eastwest;" parent="146" vertex="1">
          <mxGeometry y="148" width="250" height="20" as="geometry" />
        </mxCell>
        <mxCell id="156" value="- &lt;u&gt;getCornerMoves&lt;/u&gt;(Board, Mark): number[]" style="text;html=1;strokeColor=none;fillColor=none;align=left;verticalAlign=middle;spacingLeft=4;spacingRight=4;overflow=hidden;rotatable=0;points=[[0,0.5],[1,0.5]];portConstraint=eastwest;" parent="146" vertex="1">
          <mxGeometry y="168" width="250" height="20" as="geometry" />
        </mxCell>
        <mxCell id="157" value="- &lt;u&gt;getSideMoves&lt;/u&gt;(Board, Mark): number[]" style="text;html=1;strokeColor=none;fillColor=none;align=left;verticalAlign=middle;spacingLeft=4;spacingRight=4;overflow=hidden;rotatable=0;points=[[0,0.5],[1,0.5]];portConstraint=eastwest;" parent="146" vertex="1">
          <mxGeometry y="188" width="250" height="20" as="geometry" />
        </mxCell>
        <mxCell id="149" value="+ getMoves(Board, Mark): number[]" style="text;html=1;strokeColor=none;fillColor=none;align=left;verticalAlign=middle;spacingLeft=4;spacingRight=4;overflow=hidden;rotatable=0;points=[[0,0.5],[1,0.5]];portConstraint=eastwest;" parent="146" vertex="1">
          <mxGeometry y="208" width="250" height="20" as="geometry" />
        </mxCell>
        <mxCell id="180" style="edgeStyle=orthogonalEdgeStyle;html=1;dashed=1;fontColor=#FFFFFF;endArrow=block;endFill=1;" parent="sri0j_8zGDh43W-E4V1I-191" source="159" target="106" edge="1">
          <mxGeometry relative="1" as="geometry">
            <Array as="points">
              <mxPoint x="420" y="600" />
              <mxPoint x="420" y="600" />
            </Array>
          </mxGeometry>
        </mxCell>
        <mxCell id="LcbPu9XO0VQtriAoMdwd-201" style="edgeStyle=orthogonalEdgeStyle;rounded=1;orthogonalLoop=1;jettySize=auto;html=1;curved=0;endArrow=open;endFill=0;" parent="sri0j_8zGDh43W-E4V1I-191" source="159" target="64" edge="1">
          <mxGeometry relative="1" as="geometry">
            <Array as="points">
              <mxPoint x="660" y="580" />
              <mxPoint x="520" y="580" />
            </Array>
          </mxGeometry>
        </mxCell>
        <mxCell id="159" value="&lt;b&gt;HardComputer&lt;/b&gt;" style="swimlane;fontStyle=0;align=center;verticalAlign=top;childLayout=stackLayout;horizontal=1;startSize=20;horizontalStack=0;resizeParent=1;resizeParentMax=0;resizeLast=0;collapsible=0;marginBottom=0;html=1;fillStyle=auto;fontColor=#FFFFFF;fillColor=#18141D;gradientColor=none;" parent="sri0j_8zGDh43W-E4V1I-191" vertex="1">
          <mxGeometry x="350" y="610" width="420" height="328" as="geometry" />
        </mxCell>
        <mxCell id="162" value="+ rng: Random" style="text;html=1;strokeColor=none;fillColor=none;align=left;verticalAlign=middle;spacingLeft=4;spacingRight=4;overflow=hidden;rotatable=0;points=[[0,0.5],[1,0.5]];portConstraint=eastwest;fontColor=#808080;fillStyle=auto;" parent="159" vertex="1">
          <mxGeometry y="20" width="420" height="20" as="geometry" />
        </mxCell>
        <mxCell id="163" value="- &lt;u&gt;EQUALITIES&lt;/u&gt;: Map&amp;lt;1..12, (number, number)&amp;gt;" style="text;html=1;strokeColor=none;fillColor=none;align=left;verticalAlign=middle;spacingLeft=4;spacingRight=4;overflow=hidden;rotatable=0;points=[[0,0.5],[1,0.5]];portConstraint=eastwest;fillStyle=auto;fontColor=#FFFFFF;" parent="159" vertex="1">
          <mxGeometry y="40" width="420" height="20" as="geometry" />
        </mxCell>
        <mxCell id="167" value="- &lt;u&gt;SYMMETRIES&lt;/u&gt;: { equalities: number[], image: number[] }" style="text;html=1;strokeColor=none;fillColor=none;align=left;verticalAlign=middle;spacingLeft=4;spacingRight=4;overflow=hidden;rotatable=0;points=[[0,0.5],[1,0.5]];portConstraint=eastwest;fillStyle=auto;fontColor=#FFFFFF;" parent="159" vertex="1">
          <mxGeometry y="60" width="420" height="20" as="geometry" />
        </mxCell>
        <mxCell id="174" value="+ &lt;u&gt;RECONCILERS&lt;/u&gt;: Map&amp;lt;Mark, (number, number) -&amp;gt; number&amp;gt;" style="text;html=1;strokeColor=none;fillColor=none;align=left;verticalAlign=middle;spacingLeft=4;spacingRight=4;overflow=hidden;rotatable=0;points=[[0,0.5],[1,0.5]];portConstraint=eastwest;fillStyle=auto;fontColor=#FFFFFF;" parent="159" vertex="1">
          <mxGeometry y="80" width="420" height="20" as="geometry" />
        </mxCell>
        <mxCell id="175" value="+ &lt;u&gt;CONTROLS&lt;/u&gt;: Map&amp;lt;Mark, number&amp;gt;" style="text;html=1;strokeColor=none;fillColor=none;align=left;verticalAlign=middle;spacingLeft=4;spacingRight=4;overflow=hidden;rotatable=0;points=[[0,0.5],[1,0.5]];portConstraint=eastwest;fillStyle=auto;fontColor=#FFFFFF;" parent="159" vertex="1">
          <mxGeometry y="100" width="420" height="20" as="geometry" />
        </mxCell>
        <mxCell id="164" value="" style="line;strokeWidth=1;fillColor=none;align=left;verticalAlign=middle;spacingTop=-1;spacingLeft=3;spacingRight=3;rotatable=0;labelPosition=right;points=[];portConstraint=eastwest;fillStyle=auto;fontColor=#FFFFFF;" parent="159" vertex="1">
          <mxGeometry y="120" width="420" height="8" as="geometry" />
        </mxCell>
        <mxCell id="179" value="+ getMove(Board, Mark): number" style="text;html=1;strokeColor=none;fillColor=none;align=left;verticalAlign=middle;spacingLeft=4;spacingRight=4;overflow=hidden;rotatable=0;points=[[0,0.5],[1,0.5]];portConstraint=eastwest;fontColor=#808080;" parent="159" vertex="1">
          <mxGeometry y="128" width="420" height="20" as="geometry" />
        </mxCell>
        <mxCell id="166" value="- &lt;u&gt;symmetryMatches&lt;/u&gt;(equalSet: Set&amp;lt;number&amp;gt;, symmetry: number[]): boolean" style="text;html=1;strokeColor=none;fillColor=none;align=left;verticalAlign=middle;spacingLeft=4;spacingRight=4;overflow=hidden;rotatable=0;points=[[0,0.5],[1,0.5]];portConstraint=eastwest;fillStyle=auto;fontColor=#FFFFFF;" parent="159" vertex="1">
          <mxGeometry y="148" width="420" height="20" as="geometry" />
        </mxCell>
        <mxCell id="168" value="- &lt;u&gt;filterImage&lt;/u&gt;(Board, image: number[]): number[]" style="text;html=1;strokeColor=none;fillColor=none;align=left;verticalAlign=middle;spacingLeft=4;spacingRight=4;overflow=hidden;rotatable=0;points=[[0,0.5],[1,0.5]];portConstraint=eastwest;fillStyle=auto;fontColor=#FFFFFF;" parent="159" vertex="1">
          <mxGeometry y="168" width="420" height="20" as="geometry" />
        </mxCell>
        <mxCell id="169" value="- &lt;u&gt;getEqualitySet&lt;/u&gt;(Board): Set&amp;lt;number&amp;gt;" style="text;html=1;strokeColor=none;fillColor=none;align=left;verticalAlign=middle;spacingLeft=4;spacingRight=4;overflow=hidden;rotatable=0;points=[[0,0.5],[1,0.5]];portConstraint=eastwest;fillStyle=auto;fontColor=#FFFFFF;" parent="159" vertex="1">
          <mxGeometry y="188" width="420" height="20" as="geometry" />
        </mxCell>
        <mxCell id="170" value="- &lt;u&gt;symmetricMoves&lt;/u&gt;(Board): number[]?" style="text;html=1;strokeColor=none;fillColor=none;align=left;verticalAlign=middle;spacingLeft=4;spacingRight=4;overflow=hidden;rotatable=0;points=[[0,0.5],[1,0.5]];portConstraint=eastwest;fillStyle=auto;fontColor=#FFFFFF;" parent="159" vertex="1">
          <mxGeometry y="208" width="420" height="20" as="geometry" />
        </mxCell>
        <mxCell id="171" value="- &lt;u&gt;simpleMoves&lt;/u&gt;(Board): number[]" style="text;html=1;strokeColor=none;fillColor=none;align=left;verticalAlign=middle;spacingLeft=4;spacingRight=4;overflow=hidden;rotatable=0;points=[[0,0.5],[1,0.5]];portConstraint=eastwest;fillStyle=auto;fontColor=#FFFFFF;" parent="159" vertex="1">
          <mxGeometry y="228" width="420" height="20" as="geometry" />
        </mxCell>
        <mxCell id="172" value="- &lt;u&gt;moves&lt;/u&gt;(Board): number[]" style="text;html=1;strokeColor=none;fillColor=none;align=left;verticalAlign=middle;spacingLeft=4;spacingRight=4;overflow=hidden;rotatable=0;points=[[0,0.5],[1,0.5]];portConstraint=eastwest;fillStyle=auto;fontColor=#FFFFFF;" parent="159" vertex="1">
          <mxGeometry y="248" width="420" height="20" as="geometry" />
        </mxCell>
        <mxCell id="173" value="- &lt;u&gt;terminal&lt;/u&gt;(Board): (-1 | 0 | 1)?" style="text;html=1;strokeColor=none;fillColor=none;align=left;verticalAlign=middle;spacingLeft=4;spacingRight=4;overflow=hidden;rotatable=0;points=[[0,0.5],[1,0.5]];portConstraint=eastwest;fillStyle=auto;fontColor=#FFFFFF;" parent="159" vertex="1">
          <mxGeometry y="268" width="420" height="20" as="geometry" />
        </mxCell>
        <mxCell id="177" value="+ &lt;u&gt;judge&lt;/u&gt;(Board, Mark): number" style="text;html=1;strokeColor=none;fillColor=none;align=left;verticalAlign=middle;spacingLeft=4;spacingRight=4;overflow=hidden;rotatable=0;points=[[0,0.5],[1,0.5]];portConstraint=eastwest;fillStyle=auto;fontColor=#FFFFFF;" parent="159" vertex="1">
          <mxGeometry y="288" width="420" height="20" as="geometry" />
        </mxCell>
        <mxCell id="178" value="+ getMoves(Board, Mark): number[]" style="text;html=1;strokeColor=none;fillColor=none;align=left;verticalAlign=middle;spacingLeft=4;spacingRight=4;overflow=hidden;rotatable=0;points=[[0,0.5],[1,0.5]];portConstraint=eastwest;fillStyle=auto;fontColor=#FFFFFF;" parent="159" vertex="1">
          <mxGeometry y="308" width="420" height="20" as="geometry" />
        </mxCell>
        <mxCell id="44" value="&lt;b&gt;Board&lt;/b&gt;" style="swimlane;fontStyle=0;align=center;verticalAlign=top;childLayout=stackLayout;horizontal=1;startSize=20;horizontalStack=0;resizeParent=1;resizeParentMax=0;resizeLast=0;collapsible=0;marginBottom=0;html=1;" parent="sri0j_8zGDh43W-E4V1I-191" vertex="1">
          <mxGeometry x="580" y="320" width="210" height="248" as="geometry" />
        </mxCell>
        <mxCell id="46" value="+ &lt;u&gt;WIN_PATTERNS&lt;/u&gt;: number[][]" style="text;html=1;strokeColor=none;fillColor=none;align=left;verticalAlign=middle;spacingLeft=4;spacingRight=4;overflow=hidden;rotatable=0;points=[[0,0.5],[1,0.5]];portConstraint=eastwest;" parent="44" vertex="1">
          <mxGeometry y="20" width="210" height="20" as="geometry" />
        </mxCell>
        <mxCell id="52" value="+ data: Mark?[]" style="text;html=1;strokeColor=none;fillColor=none;align=left;verticalAlign=middle;spacingLeft=4;spacingRight=4;overflow=hidden;rotatable=0;points=[[0,0.5],[1,0.5]];portConstraint=eastwest;" parent="44" vertex="1">
          <mxGeometry y="40" width="210" height="20" as="geometry" />
        </mxCell>
        <mxCell id="49" value="" style="line;strokeWidth=1;fillColor=none;align=left;verticalAlign=middle;spacingTop=-1;spacingLeft=3;spacingRight=3;rotatable=0;labelPosition=right;points=[];portConstraint=eastwest;" parent="44" vertex="1">
          <mxGeometry y="60" width="210" height="8" as="geometry" />
        </mxCell>
        <mxCell id="51" value="+ &lt;u&gt;Board&lt;/u&gt;(Board?)" style="text;html=1;strokeColor=none;fillColor=none;align=left;verticalAlign=middle;spacingLeft=4;spacingRight=4;overflow=hidden;rotatable=0;points=[[0,0.5],[1,0.5]];portConstraint=eastwest;" parent="44" vertex="1">
          <mxGeometry y="68" width="210" height="20" as="geometry" />
        </mxCell>
        <mxCell id="53" value="+ &lt;u&gt;fromPattern&lt;/u&gt;(pattern: string): Board" style="text;html=1;strokeColor=none;fillColor=none;align=left;verticalAlign=middle;spacingLeft=4;spacingRight=4;overflow=hidden;rotatable=0;points=[[0,0.5],[1,0.5]];portConstraint=eastwest;" parent="44" vertex="1">
          <mxGeometry y="88" width="210" height="20" as="geometry" />
        </mxCell>
        <mxCell id="54" value="+ setMark(position: number, Mark): ()" style="text;html=1;strokeColor=none;fillColor=none;align=left;verticalAlign=middle;spacingLeft=4;spacingRight=4;overflow=hidden;rotatable=0;points=[[0,0.5],[1,0.5]];portConstraint=eastwest;" parent="44" vertex="1">
          <mxGeometry y="108" width="210" height="20" as="geometry" />
        </mxCell>
        <mxCell id="55" value="+ canMark(position: number): boolean" style="text;html=1;strokeColor=none;fillColor=none;align=left;verticalAlign=middle;spacingLeft=4;spacingRight=4;overflow=hidden;rotatable=0;points=[[0,0.5],[1,0.5]];portConstraint=eastwest;" parent="44" vertex="1">
          <mxGeometry y="128" width="210" height="20" as="geometry" />
        </mxCell>
        <mxCell id="59" value="+ isMarkedWith(position: number, Mark): boolean" style="text;html=1;strokeColor=none;fillColor=none;align=left;verticalAlign=middle;spacingLeft=4;spacingRight=4;overflow=hidden;rotatable=0;points=[[0,0.5],[1,0.5]];portConstraint=eastwest;" parent="44" vertex="1">
          <mxGeometry y="148" width="210" height="20" as="geometry" />
        </mxCell>
        <mxCell id="60" value="+ won(Mark): boolean" style="text;html=1;strokeColor=none;fillColor=none;align=left;verticalAlign=middle;spacingLeft=4;spacingRight=4;overflow=hidden;rotatable=0;points=[[0,0.5],[1,0.5]];portConstraint=eastwest;" parent="44" vertex="1">
          <mxGeometry y="168" width="210" height="20" as="geometry" />
        </mxCell>
        <mxCell id="61" value="+ full(): boolean" style="text;html=1;strokeColor=none;fillColor=none;align=left;verticalAlign=middle;spacingLeft=4;spacingRight=4;overflow=hidden;rotatable=0;points=[[0,0.5],[1,0.5]];portConstraint=eastwest;" parent="44" vertex="1">
          <mxGeometry y="188" width="210" height="20" as="geometry" />
        </mxCell>
        <mxCell id="62" value="+ empty(): boolean" style="text;html=1;strokeColor=none;fillColor=none;align=left;verticalAlign=middle;spacingLeft=4;spacingRight=4;overflow=hidden;rotatable=0;points=[[0,0.5],[1,0.5]];portConstraint=eastwest;" parent="44" vertex="1">
          <mxGeometry y="208" width="210" height="20" as="geometry" />
        </mxCell>
        <mxCell id="63" value="+ __tostring(): string" style="text;html=1;strokeColor=none;fillColor=none;align=left;verticalAlign=middle;spacingLeft=4;spacingRight=4;overflow=hidden;rotatable=0;points=[[0,0.5],[1,0.5]];portConstraint=eastwest;" parent="44" vertex="1">
          <mxGeometry y="228" width="210" height="20" as="geometry" />
        </mxCell>
        <mxCell id="LcbPu9XO0VQtriAoMdwd-200" style="edgeStyle=orthogonalEdgeStyle;rounded=0;orthogonalLoop=1;jettySize=auto;html=1;endArrow=open;endFill=0;" parent="sri0j_8zGDh43W-E4V1I-191" source="LcbPu9XO0VQtriAoMdwd-192" target="20" edge="1">
          <mxGeometry relative="1" as="geometry">
            <Array as="points">
              <mxPoint x="100" y="280" />
              <mxPoint x="100" y="280" />
            </Array>
          </mxGeometry>
        </mxCell>
        <mxCell id="LcbPu9XO0VQtriAoMdwd-192" value="&lt;b&gt;EndedResult&lt;/b&gt;" style="swimlane;fontStyle=0;align=center;verticalAlign=top;childLayout=stackLayout;horizontal=1;startSize=20;horizontalStack=0;resizeParent=1;resizeParentMax=0;resizeLast=0;collapsible=0;marginBottom=0;html=1;whiteSpace=wrap;" parent="sri0j_8zGDh43W-E4V1I-191" vertex="1">
          <mxGeometry x="40" y="300" width="110" height="40" as="geometry" />
        </mxCell>
        <mxCell id="LcbPu9XO0VQtriAoMdwd-194" value="+ winner: Player?" style="text;html=1;strokeColor=none;fillColor=none;align=left;verticalAlign=middle;spacingLeft=4;spacingRight=4;overflow=hidden;rotatable=0;points=[[0,0.5],[1,0.5]];portConstraint=eastwest;whiteSpace=wrap;" parent="LcbPu9XO0VQtriAoMdwd-192" vertex="1">
          <mxGeometry y="20" width="110" height="20" as="geometry" />
        </mxCell>
        <mxCell id="184" style="edgeStyle=orthogonalEdgeStyle;html=1;fontColor=#FFFFFF;endArrow=block;endFill=1;dashed=1;" parent="1" source="3" target="35" edge="1">
          <mxGeometry relative="1" as="geometry">
            <Array as="points">
              <mxPoint x="590" y="240" />
              <mxPoint x="500" y="240" />
            </Array>
          </mxGeometry>
        </mxCell>
        <mxCell id="189" style="edgeStyle=orthogonalEdgeStyle;html=1;fontColor=#FFFFFF;endArrow=open;endFill=0;" parent="1" source="13" target="20" edge="1">
          <mxGeometry relative="1" as="geometry">
            <Array as="points">
              <mxPoint x="155" y="120" />
              <mxPoint x="155" y="120" />
            </Array>
          </mxGeometry>
        </mxCell>
      </root>
    </mxGraphModel>
  </diagram>
</mxfile>
